<?xml version="1.0" encoding="UTF-8"?>
<svg width="16px" height="16px" viewBox="0 0 16 16" version="1.1" xmlns="http://www.w3.org/2000/svg" xmlns:xlink="http://www.w3.org/1999/xlink">
    <title>Logo MK ContentAI</title>
    <g id="Page-1" stroke="none" stroke-width="1" fill="none" fill-rule="evenodd">
        <g id="Logoset-für-die-MK-Typo3-Extensions" transform="translate(-459.000000, -1042.000000)">
            <g id="Group-3" transform="translate(104.000000, 1011.000000)">
                <g id="Logo-MK-ContentAI" transform="translate(355.000000, 31.000000)">
                    <g id="Group-2"></g>
                    <g id="Group">
                        <circle id="Oval" fill="#1068C9" cx="8" cy="8" r="8"></circle>
                        <g id="Group-4" transform="translate(3.000000, 3.000000)" fill="#FFFFFF" fill-opacity="0.6" fill-rule="nonzero">
                            <path d="M0.5,0 L6.5,0 C6.77614237,3.84289714e-16 7,0.223857625 7,0.5 L7,6.5 C7,6.77614237 6.77614237,7 6.5,7 L0.5,7 C0.223857625,7 4.68833933e-16,6.77614237 0,6.5 L0,0.5 C-8.93288388e-17,0.223857625 0.223857625,-4.7846199e-18 0.5,0 Z" id="Rectangle" transform="translate(3.500000, 3.500000) rotate(90.000000) translate(-3.500000, -3.500000) "></path>
                            <path d="M3.5,3 L9.5,3 C9.77614237,3 10,3.22385763 10,3.5 L10,9.5 C10,9.77614237 9.77614237,10 9.5,10 L3.5,10 C3.22385763,10 3,9.77614237 3,9.5 L3,3.5 C3,3.22385763 3.22385763,3 3.5,3 Z" id="Rectangle" transform="translate(6.500000, 6.500000) rotate(90.000000) translate(-6.500000, -6.500000) "></path>
                        </g>
                        <path d="M6.5,6 L10,6 L10,6 L10,9.5 C10,9.77614237 9.77614237,10 9.5,10 L6,10 L6,10 L6,6.5 C6,6.22385763 6.22385763,6 6.5,6 Z" id="Rectangle" fill="#FFFFFF"></path>
                    </g>
                </g>
            </g>
        </g>
    </g>
</svg>