<?xml version="1.0" encoding="UTF-8"?>
<svg width="32px" height="32px" viewBox="0 0 32 32" version="1.1" xmlns="http://www.w3.org/2000/svg" xmlns:xlink="http://www.w3.org/1999/xlink">
    <title>MkContentAI_icn_32px</title>
    <g id="MkContentAI_icn_32px" stroke="none" stroke-width="1" fill="none" fill-rule="evenodd">
        <g id="Group-2">
            <circle id="Oval" fill="#1068C9" cx="16" cy="16" r="16"></circle>
            <g id="Quadrate" transform="translate(7, 7)" fill="#FFFFFF">
                <path d="M1,0 L11.6666667,0 C12.2189514,-2.12475365e-16 12.6666667,0.44771525 12.6666667,1 L12.6666667,11.6666667 C12.6666667,12.2189514 12.2189514,12.6666667 11.6666667,12.6666667 L1,12.6666667 C0.44771525,12.6666667 -4.33869274e-17,12.2189514 0,11.6666667 L0,1 C-1.78657678e-16,0.44771525 0.44771525,-9.5692398e-18 1,0 Z" id="Rectangle" fill-opacity="0.6" fill-rule="nonzero" transform="translate(6.3333, 6.3333) rotate(90) translate(-6.3333, -6.3333)"></path>
                <path d="M6.38888889,5.33333333 L16.9444444,5.33333333 C17.5274117,5.33333333 18,5.80592165 18,6.38888889 L18,16.9444444 C18,17.5274117 17.5274117,18 16.9444444,18 L6.38888889,18 C5.80592165,18 5.33333333,17.5274117 5.33333333,16.9444444 L5.33333333,6.38888889 C5.33333333,5.80592165 5.80592165,5.33333333 6.38888889,5.33333333 Z" id="Rectangle" fill-opacity="0.6" fill-rule="nonzero" transform="translate(11.6667, 11.6667) rotate(90) translate(-11.6667, -11.6667)"></path>
                <path d="M6.38888892,5.33333333 L12.6633333,5.33333333 L12.6633333,5.33333333 L12.6633333,11.6077778 C12.6633333,12.190745 12.190745,12.6633333 11.6077778,12.6633333 L5.33333333,12.6633333 L5.33333333,12.6633333 L5.33333333,6.38888892 C5.33333333,5.80592166 5.80592166,5.33333333 6.38888892,5.33333333 Z" id="Rectangle"></path>
            </g>
        </g>
    </g>
</svg>