<?xml version="1.0" encoding="utf-8"?>
<!-- Generator: Adobe Illustrator 27.0.0, SVG Export Plug-In . SVG Version: 6.00 Build 0)  -->
<svg version="1.1" id="Ebene_2_00000075844389857344372140000013224531755001827216_"
	 xmlns="http://www.w3.org/2000/svg" xmlns:xlink="http://www.w3.org/1999/xlink" x="0px" y="0px" viewBox="0 0 16 16"
	 style="enable-background:new 0 0 16 16;" xml:space="preserve">
<style type="text/css">
	.st0{display:none;}
	.st1{display:inline;fill:#1068C9;}
	.st2{display:inline;fill:#FFFFFF;}
	.st3{fill:#1068C9;}
	.st4{fill:#0657A3;}
</style>
<g id="Ebene_1-2" class="st0">
	<polygon class="st1" points="0.2,2.6 0.2,11.6 12.9,11.6 15.8,14.4 15.8,2.6 	"/>
	<path class="st2" d="M8,10.1H6.4V6L5.2,8.7H4.1L3,6v4.1H1.5V3.9h1.9L4.7,7l1.4-3.1H8V10.1z"/>
	<path class="st2" d="M14.7,10.1h-2l-1.8-2.5l-0.4,0.5v2H8.9V3.9h1.6v2.8l2.2-2.8h1.9l-2.4,2.9C12.1,6.8,14.7,10.1,14.7,10.1z"/>
</g>
<path class="st3" d="M6.1,9.9V6.1h3.8v3.8H6.1z M7.5,8.5h1v-1h-1V8.5z M5.4,15.2v-2.1H4.5c-0.5,0-0.8-0.2-1.2-0.5
	c-0.3-0.3-0.5-0.7-0.5-1.2v-0.9H0.8V9.1h2.1V6.9H0.8V5.4h2.1V4.6c0-0.5,0.2-0.8,0.5-1.2c0.3-0.3,0.7-0.5,1.2-0.5h0.9V0.8h1.5v2.1
	h2.2V0.8h1.5v2.1h0.9c0.5,0,0.8,0.2,1.2,0.5c0.3,0.3,0.5,0.7,0.5,1.2v0.9h2.1v1.5h-2.1v2.2h2.1v1.5h-2.1v0.9c0,0.5-0.2,0.8-0.5,1.2
	c-0.3,0.3-0.7,0.5-1.2,0.5h-0.9v2.1H9.1v-2.1H6.9v2.1H5.4z M11.5,11.5V4.6H4.5v6.9H11.5z"/>
<path class="st4" d="M14.4,16H1.6C0.7,16,0,15.3,0,14.4V1.6C0,0.7,0.7,0,1.6,0h12.8C15.3,0,16,0.7,16,1.6v12.8
	C16,15.3,15.3,16,14.4,16z M1.6,0.2c-0.8,0-1.4,0.6-1.4,1.4v12.8c0,0.8,0.6,1.4,1.4,1.4h12.8c0.8,0,1.4-0.6,1.4-1.4V1.6
	c0-0.8-0.6-1.4-1.4-1.4H1.6z"/>
</svg>
